<?xml version="1.0" encoding="UTF-8"?>
<!DOCTYPE svg PUBLIC "-//W3C//DTD SVG 1.1//EN" "http://www.w3.org/Graphics/SVG/1.1/DTD/svg11.dtd">
<!-- Creator: CorelDRAW X8 -->
<svg xmlns="http://www.w3.org/2000/svg" xml:space="preserve" width="14.6843mm" height="4.3509mm" version="1.1" style="shape-rendering:geometricPrecision; text-rendering:geometricPrecision; image-rendering:optimizeQuality; fill-rule:evenodd; clip-rule:evenodd"
viewBox="0 0 245 73"
 xmlns:xlink="http://www.w3.org/1999/xlink">
 <defs>
  <style type="text/css">
   <![CDATA[
    .fil1 {fill:black}
    .fil0 {fill:#A6A6A6}
    .fil2 {fill:white}
   ]]>
  </style>
 </defs>
 <g id="Camada_x0020_1">
  <metadata id="CorelCorpID_0Corel-Layer"/>
  <g id="_2055534536208">
   <path class="fil0" d="M236 73l-227 0c-5,0 -9,-4 -9,-9l0 -55c0,-5 4,-9 9,-9l227 0c5,0 9,4 9,9l0 55c0,5 -4,9 -9,9l0 0z"/>
   <path class="fil1" d="M243 64c0,4 -3,7 -7,7l-227 0c-4,0 -7,-3 -7,-7l0 -55c0,-4 3,-7 7,-7l227 0c4,0 7,3 7,7l0 55 0 0z"/>
   <path class="fil2" d="M55 36c0,-6 4,-9 5,-9 -3,-4 -7,-4 -9,-5 -3,0 -7,3 -9,3 -1,0 -4,-2 -7,-2 -4,0 -8,2 -10,5 -4,8 -1,18 3,24 2,3 4,6 7,6 3,-1 4,-2 8,-2 3,0 5,2 8,2 3,-1 5,-3 7,-6 2,-3 3,-7 3,-7 0,0 -6,-2 -6,-9z"/>
   <path class="fil2" d="M49 19c1,-2 3,-5 2,-8 -2,0 -5,2 -7,4 -1,2 -2,4 -2,7 3,0 5,-1 7,-3z"/>
   <path class="fil2" d="M97 57l-4 0 -2 -7 -8 0 -2 7 -4 0 8 -24 5 0 7 24zm-7 -10l-2 -6c0,-1 0,-2 -1,-5l0 0c0,1 -1,3 -1,5l-2 6 6 0z"/>
   <path class="fil2" d="M117 48c0,3 0,6 -2,7 -1,2 -3,3 -5,3 -3,0 -4,-1 -5,-3l0 0 0 9 -4 0 0 -18c0,-2 0,-4 0,-6l3 0 0 3 0 0c2,-3 4,-4 6,-4 2,0 4,1 5,3 2,1 2,4 2,6zm-4 0c0,-1 0,-3 -1,-4 -1,-1 -2,-2 -3,-2 -1,0 -2,1 -3,1 0,1 -1,2 -1,3 0,0 0,1 0,1l0 3c0,1 0,2 1,3 1,1 2,2 3,2 1,0 2,-1 3,-2 1,-1 1,-3 1,-5z"/>
   <path class="fil2" d="M137 48c0,3 0,6 -2,7 -1,2 -3,3 -5,3 -3,0 -4,-1 -5,-3l0 0 0 9 -4 0 0 -18c0,-2 0,-4 0,-6l3 0 0 3 0 0c2,-3 4,-4 6,-4 2,0 4,1 5,3 2,1 2,4 2,6zm-4 0c0,-1 0,-3 -1,-4 -1,-1 -2,-2 -3,-2 -1,0 -2,1 -3,1 0,1 -1,2 -1,3 0,0 0,1 0,1l0 3c0,1 0,2 1,3 1,1 2,2 3,2 1,0 2,-1 3,-2 1,-1 1,-3 1,-5z"/>
   <path class="fil2" d="M160 50c0,2 -1,4 -2,5 -2,2 -4,3 -7,3 -3,0 -5,-1 -6,-2l1 -3c1,1 3,1 5,1 2,0 3,0 4,-1 1,0 1,-1 1,-2 0,-1 0,-2 -1,-3 -1,0 -2,-1 -3,-2 -5,-1 -7,-4 -7,-7 0,-2 1,-3 2,-4 2,-2 4,-2 6,-2 3,0 4,0 6,1l-1 3c-1,-1 -3,-1 -5,-1 -1,0 -2,0 -3,1 -1,0 -1,1 -1,2 0,1 1,2 1,2 1,1 2,2 4,2 2,1 3,2 4,3 1,1 2,3 2,4z"/>
   <path class="fil2" d="M173 43l-5 0 0 8c0,2 1,3 3,3 0,0 1,0 1,0l0 3c0,0 -1,1 -3,1 -1,0 -2,-1 -3,-2 -1,-1 -1,-2 -1,-5l0 -8 -3 0 0 -3 3 0 0 -3 3 -2 0 5 5 0 0 3z"/>
   <path class="fil2" d="M192 48c0,3 -1,5 -2,7 -2,2 -4,3 -7,3 -2,0 -4,-1 -6,-3 -1,-2 -2,-4 -2,-6 0,-3 1,-5 2,-7 2,-2 4,-3 6,-3 3,0 5,1 7,3 1,2 2,4 2,6zm-4 0c0,-1 -1,-3 -1,-4 -1,-1 -2,-2 -4,-2 -1,0 -2,1 -3,2 -1,1 -1,3 -1,5 0,1 0,3 1,4 1,1 2,2 3,2 2,0 3,-1 4,-2 0,-2 1,-3 1,-5z"/>
   <path class="fil2" d="M204 43c0,0 0,0 -1,0 -1,0 -2,1 -3,2 -1,1 -1,2 -1,3l0 9 -4 0 0 -12c0,-2 0,-4 0,-5l3 0 1 3 0 0c0,-1 1,-2 2,-3 1,0 1,-1 2,-1 1,0 1,0 1,0l0 4z"/>
   <path class="fil2" d="M222 48c0,0 0,1 0,1l-12 0c0,2 1,3 2,4 1,1 2,2 3,2 2,0 4,-1 5,-1l1 2c-2,1 -4,2 -6,2 -3,0 -5,-1 -6,-3 -2,-1 -3,-4 -3,-6 0,-3 1,-5 2,-7 2,-2 4,-3 7,-3 2,0 4,1 5,3 1,2 2,3 2,6zm-4 -1c0,-1 0,-2 -1,-3 0,-1 -1,-2 -3,-2 -1,0 -2,1 -3,2 -1,0 -1,1 -1,3l8 0 0 0z"/>
   <path class="fil2" d="M89 18c0,2 -1,4 -2,5 -1,1 -3,1 -5,1 -1,0 -2,0 -3,0l0 -11c1,0 2,-1 4,-1 2,0 3,1 4,2 1,1 2,2 2,4zm-2 0c0,-1 0,-2 -1,-3 -1,-1 -2,-1 -3,-1 -1,0 -1,0 -2,0l0 9c0,0 1,0 1,0 2,0 3,0 4,-1 1,-1 1,-2 1,-4z"/>
   <path class="fil2" d="M100 20c0,1 -1,2 -1,3 -1,1 -2,2 -4,2 -1,0 -2,-1 -3,-2 0,-1 -1,-2 -1,-3 0,-1 1,-2 1,-3 1,-1 2,-1 4,-1 1,0 2,0 3,1 0,1 1,2 1,3zm-2 0c0,-1 0,-1 -1,-2 0,-1 -1,-1 -2,-1 0,0 -1,0 -1,1 -1,1 -1,1 -1,2 0,1 0,2 1,2 0,1 1,1 1,1 1,0 2,0 2,-1 1,0 1,-1 1,-2z"/>
   <path class="fil2" d="M114 16l-3 8 -1 0 -2 -3c0,-1 0,-2 0,-3l0 0c0,1 -1,2 -1,3l-1 3 -2 0 -2 -8 1 0 1 4c1,1 1,2 1,3l0 0c0,-1 0,-2 1,-3l1 -4 2 0 1 4c0,1 0,2 0,3l0 0c1,-1 1,-2 1,-3l1 -4 2 0 0 0z"/>
   <path class="fil2" d="M124 24l-2 0 0 -5c0,-1 -1,-2 -2,-2 0,0 -1,0 -1,1 -1,0 -1,1 -1,1l0 5 -2 0 0 -6c0,0 0,-1 0,-2l2 0 0 1 0 0c0,0 1,-1 1,-1 1,0 1,0 2,0 1,0 1,0 2,0 0,1 1,2 1,3l0 5z"/>
   <polygon class="fil2" points="129,24 127,24 127,12 129,12 "/>
   <path class="fil2" d="M140 20c0,1 0,2 -1,3 -1,1 -2,2 -3,2 -1,0 -2,-1 -3,-2 -1,-1 -1,-2 -1,-3 0,-1 0,-2 1,-3 1,-1 2,-1 3,-1 1,0 2,0 3,1 1,1 1,2 1,3zm-2 0c0,-1 0,-1 0,-2 -1,-1 -1,-1 -2,-1 -1,0 -1,0 -2,1 0,1 0,1 0,2 0,1 0,2 0,2 1,1 1,1 2,1 1,0 1,0 2,-1 0,0 0,-1 0,-2z"/>
   <path class="fil2" d="M149 24l-1 0 0 -1 0 0c-1,1 -2,2 -3,2 -1,0 -1,-1 -2,-1 0,-1 -1,-1 -1,-2 0,-1 1,-2 2,-2 1,-1 2,-1 3,-1l0 0c0,-1 0,-2 -1,-2 -1,0 -2,0 -3,1l0 -2c1,0 2,0 3,0 2,0 3,1 3,3l0 3c0,1 0,2 0,2zm-2 -3l0 -1c-2,0 -3,1 -3,2 0,0 0,1 1,1 0,0 0,0 1,0 0,0 0,0 1,0 0,0 0,-1 0,-1 0,0 0,0 0,-1z"/>
   <path class="fil2" d="M160 24l-1 0 -1 -1 0 0c0,1 -1,2 -2,2 -1,0 -2,-1 -3,-2 -1,0 -1,-1 -1,-3 0,-1 0,-2 1,-3 1,-1 2,-1 3,-1 1,0 2,0 2,1l0 0 0 -5 2 0 0 10c0,1 0,2 0,2zm-2 -3l0 -2c0,0 0,0 0,0 0,-1 0,-1 0,-1 -1,-1 -1,-1 -2,-1 0,0 -1,0 -1,1 -1,1 -1,1 -1,2 0,1 0,2 1,2 0,1 1,1 1,1 1,0 1,0 2,-1 0,0 0,-1 0,-1z"/>
   <path class="fil2" d="M177 20c0,1 -1,2 -2,3 0,1 -1,2 -3,2 -1,0 -2,-1 -3,-2 0,-1 -1,-2 -1,-3 0,-1 1,-2 1,-3 1,-1 2,-1 3,-1 2,0 3,0 3,1 1,1 2,2 2,3zm-2 0c0,-1 -1,-1 -1,-2 0,-1 -1,-1 -2,-1 0,0 -1,0 -1,1 -1,1 -1,1 -1,2 0,1 0,2 1,2 0,1 1,1 1,1 1,0 2,0 2,-1 0,0 1,-1 1,-2z"/>
   <path class="fil2" d="M187 24l-2 0 0 -5c0,-1 -1,-2 -2,-2 0,0 -1,0 -1,1 -1,0 -1,1 -1,1l0 5 -2 0 0 -6c0,0 0,-1 0,-2l2 0 0 1 0 0c0,0 1,-1 1,-1 1,0 1,0 2,0 1,0 1,0 2,0 0,1 1,2 1,3l0 5z"/>
   <path class="fil2" d="M200 17l-3 0 0 4c0,1 1,2 2,2 0,0 0,0 0,0l0 1c0,0 0,1 -1,1 -1,0 -1,-1 -2,-1 0,-1 0,-1 0,-2l0 -5 -2 0 0 -1 2 0 0 -2 1 0 0 2 3 0 0 1 0 0z"/>
   <path class="fil2" d="M210 24l-2 0 0 -4c0,-2 -1,-3 -2,-3 -1,0 -1,1 -2,2 0,0 0,0 0,0l0 5 -2 0 0 -12 2 0 0 5 0 0c1,-1 2,-1 3,-1 0,0 1,0 2,0 0,1 1,2 1,3l0 5z"/>
   <path class="fil2" d="M220 20c0,0 0,0 0,1l-6 0c0,0 1,1 1,1 1,1 1,1 2,1 1,0 2,0 2,0l1 1c-1,0 -2,1 -3,1 -2,0 -3,-1 -3,-2 -1,0 -2,-1 -2,-3 0,-1 1,-2 1,-3 1,-1 2,-1 3,-1 2,0 3,0 3,1 1,1 1,2 1,3zm-2 -1c0,0 0,-1 0,-1 0,-1 -1,-1 -2,-1 0,0 -1,0 -1,1 -1,0 -1,1 -1,1l4 0z"/>
  </g>
 </g>
</svg>
